<?xml version="1.0" encoding="iso-8859-1"?>
<!-- Generator: Adobe Illustrator 19.0.0, SVG Export Plug-In . SVG Version: 6.00 Build 0)  -->
<svg version="1.1" id="Layer_1" xmlns="http://www.w3.org/2000/svg" xmlns:xlink="http://www.w3.org/1999/xlink" x="0px" y="0px"
	 viewBox="0 0 512 512" style="enable-background:new 0 0 512 512;" xml:space="preserve">
<path style="fill:#3D9AE2;" d="M287.23,266.731c-14.36,16.516-22.147,42.962-26.364,67.596v-0.002c0,0-4.866,4.016-9.731,0.001
	c0,0-9.574-50.317-26.365-67.596c-0.704-0.743-38.137,0-38.137,0s40.42,19.669,40.42,128.668c0,0.686,27.62,0.033,28.948,0.002
	c1.328,0.031,28.948,0.684,28.948-0.002c0-108.998,40.42-128.668,40.42-128.668S287.934,265.987,287.23,266.731z"/>
<g>
	<path style="fill:#1E81CE;" d="M287.23,266.731c-11.259,12.95-18.477,32.005-23.102,51.504c10.773-0.716,21.418-2.864,31.866-6.408
		c11.968-36.626,29.374-45.097,29.374-45.097S287.934,265.987,287.23,266.731z"/>
	<path style="fill:#1E81CE;" d="M224.77,266.731c-0.704-0.743-38.137,0-38.137,0s17.406,8.47,29.374,45.097
		c10.297,3.493,20.784,5.628,31.398,6.373C243.163,301.928,235.418,277.688,224.77,266.731z"/>
</g>
<path style="fill:#1A6FB0;" d="M272.353,364.448h-32.704c-6.963,0-12.66,5.697-12.66,12.66v114.629c0,6.963,5.697,12.66,12.66,12.66
	h32.704c6.963,0,12.66-5.697,12.66-12.66V377.108C285.012,370.145,279.315,364.448,272.353,364.448z"/>
<path style="fill:#165C92;" d="M256,491.737V377.108c0-6.963,5.697-12.66,12.66-12.66h-29.012c-6.963,0-12.66,5.697-12.66,12.66
	v114.629c0,6.963,5.697,12.66,12.66,12.66h29.012C261.697,504.396,256,498.699,256,491.737z"/>
<path style="fill:#003F8A;" d="M280.977,479.093h-49.952c-6.958,0-12.652,5.694-12.652,12.652c0,6.958,5.693,12.652,12.652,12.652
	h49.952c6.958,0,12.652-5.693,12.652-12.652C293.627,484.787,287.935,479.093,280.977,479.093z"/>
<path style="fill:#003068;" d="M247.384,491.745c0-6.958,5.693-12.652,12.652-12.652h-29.012c-6.958,0-12.652,5.693-12.652,12.652
	c0,6.959,5.693,12.652,12.652,12.652h29.012C253.077,504.396,247.384,498.703,247.384,491.745z"/>
<path style="fill:#D1E7F8;" d="M272.353,364.448h-32.704c-6.963,0-12.66,5.697-12.66,12.66v18.603h58.024v-18.603
	C285.012,370.145,279.315,364.448,272.353,364.448z"/>
<path style="fill:#B9D8F4;" d="M268.66,364.448h-29.012c-6.963,0-12.66,5.697-12.66,12.66v18.603H256v-18.603
	C256,370.145,261.697,364.448,268.66,364.448z"/>
<path style="fill:#78B9EB;" d="M389.456,134.384c0,73.706-59.75,158.775-133.456,158.775S122.544,208.09,122.544,134.384
	S182.294,7.604,256,7.604S389.456,60.679,389.456,134.384z"/>
<path style="fill:#5AAAE7;" d="M170.934,135.05c0-66.155,48.139-115.682,111.297-125.135c-8.482-1.517-17.252-2.311-26.232-2.311
	c-73.706,0-133.456,53.075-133.456,126.78s59.75,158.775,133.456,158.775c7.809,0,15.458-0.964,22.899-2.759
	C217.388,273.845,170.934,200.037,170.934,135.05z"/>
<path style="fill:#96C8EF;" d="M256,272.882c-28.091,0-55.96-15.649-78.474-44.063c-21.731-27.426-34.703-62.729-34.703-94.435
	C142.822,73.667,191.478,27.881,256,27.881s113.178,45.786,113.178,106.503c0,31.705-12.973,67.009-34.703,94.435
	C311.96,257.234,284.091,272.882,256,272.882z"/>
<path style="fill:#78B9EB;" d="M170.934,135.046c0-44.435,21.722-81.363,55.12-103.693c-49.051,11.747-83.232,52.14-83.232,103.027
	c0,31.705,12.973,67.009,34.703,94.435c18.185,22.951,39.863,37.567,62.33,42.342C198.761,240.921,170.934,185.342,170.934,135.046z
	"/>
<path style="fill:#D1E7F8;" d="M280.413,228.815l-12.079,43.063c23.819-3.866,46.929-18.807,66.139-43.053
	c18-22.717,29.982-50.837,33.569-77.842l-69.346,51.314C289.825,208.861,283.394,218.191,280.413,228.815z"/>
<path style="fill:#B9D8F4;" d="M314.411,212.942l47.397-35.071c2.931-8.928,5.05-17.968,6.235-26.888l-69.346,51.314
	c-8.87,6.564-15.303,15.893-18.283,26.518l-12.079,43.063c6.889-1.118,13.718-3.168,20.411-6.096l7.383-26.321
	C299.108,228.836,305.54,219.506,314.411,212.942z"/>
<path style="fill:#D1E7F8;" d="M231.581,228.815l12.079,43.063c-23.819-3.866-46.929-18.807-66.139-43.053
	c-18-22.717-29.982-50.837-33.569-77.842l69.346,51.314C222.168,208.861,228.601,218.191,231.581,228.815z"/>
<g>
	<path style="fill:#B9D8F4;" d="M239.855,271.156c-30.363-22.34-53.467-58.518-63.472-96.175l-32.431-23.998
		c3.587,27.005,15.57,55.126,33.569,77.842c18.185,22.951,39.864,37.557,62.33,42.332
		C239.853,271.157,239.854,271.156,239.855,271.156z"/>
	<path style="fill:#B9D8F4;" d="M197.583,212.942l-47.397-35.071c-2.931-8.928-5.05-17.968-6.235-26.888l69.346,51.314
		c8.87,6.564,15.303,15.893,18.283,26.518l12.079,43.063c-6.889-1.118-13.718-3.168-20.411-6.096l-7.383-26.321
		C212.887,228.836,206.454,219.506,197.583,212.942z"/>
</g>
<g>
	<path style="fill:#96C8EF;" d="M176.384,174.981l-32.431-23.998c1.185,8.92,3.304,17.959,6.235,26.888l37.304,27.603
		C182.874,195.594,179.137,185.344,176.384,174.981z"/>
	<path style="fill:#96C8EF;" d="M239.849,271.152c-7.133-5.249-13.854-11.275-20.112-17.892l3.512,12.52
		C228.706,268.168,234.254,269.962,239.849,271.152z"/>
</g>
<path style="fill:#D1E7F8;" d="M273.548,97.951l60.062-42.443c-19.967-17.317-47.002-27.627-77.612-27.627
	c-30.613,0-57.647,10.312-77.615,27.629l60.059,42.44C248.963,105.386,263.027,105.386,273.548,97.951z"/>
<g>
	<path style="fill:#B9D8F4;" d="M226.063,31.354c-18.296,4.382-34.523,12.748-47.68,24.159l13.568,9.588
		C200.971,51.777,212.566,40.376,226.063,31.354z"/>
	<path style="fill:#B9D8F4;" d="M270.041,74.747c-8.417,5.947-19.668,5.947-28.085,0l-45.301-32.013
		c-6.589,3.667-12.706,7.948-18.272,12.776l60.059,42.44c10.521,7.435,24.585,7.435,35.106,0l60.062-42.443
		c-5.565-4.826-11.681-9.107-18.269-12.773L270.041,74.747z"/>
</g>
<path style="fill:#96C8EF;" d="M196.655,42.734c-6.589,3.667-12.706,7.948-18.272,12.776l13.568,9.588
	c3.942-5.823,8.379-11.275,13.246-16.326L196.655,42.734z"/>
<path d="M195.01,156.421c1.41-1.419,2.23-3.376,2.23-5.373c0-2.007-0.821-3.964-2.23-5.384c-1.418-1.409-3.375-2.22-5.373-2.22
	c-2.006,0-3.964,0.811-5.384,2.22c-1.41,1.419-2.22,3.376-2.22,5.384c0,1.997,0.811,3.954,2.22,5.373
	c1.418,1.419,3.376,2.23,5.384,2.23C191.635,158.651,193.592,157.84,195.01,156.421z"/>
<path d="M222.818,143.443c-2.006,0-3.964,0.811-5.384,2.22c-1.41,1.419-2.22,3.376-2.22,5.384c0,1.997,0.811,3.954,2.22,5.373
	c1.418,1.419,3.376,2.23,5.384,2.23c1.998,0,3.954-0.811,5.373-2.23c1.41-1.419,2.23-3.376,2.23-5.373
	c0-2.007-0.821-3.964-2.23-5.384C226.773,144.254,224.817,143.443,222.818,143.443z"/>
<path d="M256,143.443c-2.006,0-3.964,0.811-5.384,2.22c-1.41,1.419-2.22,3.376-2.22,5.384c0,1.997,0.811,3.954,2.22,5.373
	c1.418,1.419,3.376,2.23,5.384,2.23c1.998,0,3.954-0.811,5.373-2.23c1.41-1.419,2.23-3.376,2.23-5.373
	c0-2.007-0.821-3.964-2.23-5.384C259.954,144.254,257.998,143.443,256,143.443z"/>
<path d="M289.182,143.443c-2.006,0-3.964,0.811-5.384,2.22c-1.41,1.419-2.22,3.376-2.22,5.384c0,1.997,0.811,3.954,2.22,5.373
	c1.418,1.419,3.376,2.23,5.384,2.23c1.998,0,3.954-0.811,5.373-2.23c1.41-1.419,2.231-3.376,2.231-5.373
	c0-2.007-0.821-3.964-2.231-5.384C293.136,144.254,291.179,143.443,289.182,143.443z"/>
<path d="M322.363,158.651c1.998,0,3.954-0.811,5.373-2.23c1.41-1.419,2.23-3.376,2.23-5.373c0-2.007-0.821-3.964-2.23-5.384
	c-1.418-1.409-3.375-2.22-5.373-2.22c-2.006,0-3.964,0.811-5.384,2.22c-1.41,1.419-2.22,3.376-2.22,5.384
	c0,1.997,0.811,3.954,2.22,5.373C318.398,157.84,320.356,158.651,322.363,158.651z"/>
<path d="M222.815,98.35c1.998,0,3.954-0.811,5.373-2.23c1.41-1.419,2.23-3.376,2.23-5.373c0-2.007-0.821-3.964-2.23-5.384
	c-1.418-1.409-3.375-2.22-5.373-2.22c-2.006,0-3.964,0.811-5.384,2.22c-1.41,1.419-2.22,3.376-2.22,5.384
	c0,1.997,0.811,3.954,2.22,5.373C218.851,97.539,220.808,98.35,222.815,98.35z"/>
<path d="M255.997,98.35c1.998,0,3.954-0.811,5.373-2.23c1.41-1.419,2.23-3.376,2.23-5.373c0-2.007-0.821-3.964-2.23-5.384
	c-1.418-1.409-3.375-2.22-5.373-2.22c-2.006,0-3.964,0.811-5.384,2.22c-1.41,1.419-2.22,3.376-2.22,5.384
	c0,1.997,0.811,3.954,2.22,5.373C252.033,97.539,253.99,98.35,255.997,98.35z"/>
<path d="M289.178,98.35c1.998,0,3.954-0.811,5.373-2.23c1.41-1.419,2.23-3.376,2.23-5.373c0-2.007-0.821-3.964-2.23-5.384
	c-1.418-1.409-3.375-2.22-5.373-2.22c-2.006,0-3.964,0.811-5.384,2.22c-1.41,1.419-2.22,3.376-2.22,5.384
	c0,1.997,0.811,3.954,2.22,5.373C285.213,97.539,287.171,98.35,289.178,98.35z"/>
<path d="M222.815,218.952c1.998,0,3.954-0.811,5.373-2.23c1.41-1.419,2.23-3.376,2.23-5.373c0-2.007-0.821-3.964-2.23-5.384
	c-1.418-1.409-3.375-2.22-5.373-2.22c-2.006,0-3.964,0.811-5.384,2.22c-1.41,1.419-2.22,3.376-2.22,5.384
	c0,1.997,0.811,3.954,2.22,5.373C218.851,218.141,220.808,218.952,222.815,218.952z"/>
<path d="M255.997,218.952c1.998,0,3.954-0.811,5.373-2.23c1.41-1.419,2.23-3.376,2.23-5.373c0-2.007-0.821-3.964-2.23-5.384
	c-1.418-1.409-3.375-2.22-5.373-2.22c-2.006,0-3.964,0.811-5.384,2.22c-1.41,1.419-2.22,3.376-2.22,5.384
	c0,1.997,0.811,3.954,2.22,5.373C252.033,218.141,253.99,218.952,255.997,218.952z"/>
<path d="M289.178,218.952c1.998,0,3.954-0.811,5.373-2.23c1.41-1.419,2.23-3.376,2.23-5.373c0-2.007-0.821-3.964-2.23-5.384
	c-1.418-1.409-3.375-2.22-5.373-2.22c-2.006,0-3.964,0.811-5.384,2.22c-1.41,1.419-2.22,3.376-2.22,5.384
	c0,1.997,0.811,3.954,2.22,5.373C285.213,218.141,287.171,218.952,289.178,218.952z"/>
<path d="M204.845,129.249c1.998,0,3.954-0.811,5.373-2.23c1.41-1.419,2.23-3.376,2.23-5.373c0-2.007-0.821-3.964-2.23-5.384
	c-1.418-1.409-3.375-2.22-5.373-2.22c-2.006,0-3.964,0.811-5.384,2.22c-1.41,1.419-2.22,3.376-2.22,5.384
	c0,1.997,0.811,3.954,2.22,5.373C200.88,128.438,202.838,129.249,204.845,129.249z"/>
<path d="M238.026,129.249c1.998,0,3.954-0.811,5.373-2.23c1.41-1.419,2.23-3.376,2.23-5.373c0-2.007-0.821-3.964-2.23-5.384
	c-1.418-1.409-3.375-2.22-5.373-2.22c-2.006,0-3.964,0.811-5.384,2.22c-1.41,1.419-2.22,3.376-2.22,5.384
	c0,1.997,0.811,3.954,2.22,5.373C234.062,128.438,236.02,129.249,238.026,129.249z"/>
<path d="M271.208,129.249c1.998,0,3.954-0.811,5.373-2.23c1.41-1.419,2.23-3.376,2.23-5.373c0-2.007-0.821-3.964-2.23-5.384
	c-1.418-1.409-3.375-2.22-5.373-2.22c-2.006,0-3.964,0.811-5.384,2.22c-1.41,1.419-2.22,3.376-2.22,5.384
	c0,1.997,0.811,3.954,2.22,5.373C267.244,128.438,269.202,129.249,271.208,129.249z"/>
<path d="M304.39,129.249c1.998,0,3.954-0.811,5.373-2.23c1.41-1.419,2.23-3.376,2.23-5.373c0-2.007-0.821-3.964-2.23-5.384
	c-1.418-1.409-3.375-2.22-5.373-2.22c-2.006,0-3.964,0.811-5.384,2.22c-1.41,1.419-2.22,3.376-2.22,5.384
	c0,1.997,0.811,3.954,2.22,5.373C300.425,128.438,302.382,129.249,304.39,129.249z"/>
<path d="M204.845,172.845c-2.006,0-3.964,0.811-5.384,2.22c-1.41,1.419-2.22,3.376-2.22,5.384c0,1.997,0.811,3.954,2.22,5.373
	c1.418,1.419,3.376,2.23,5.384,2.23c1.998,0,3.954-0.811,5.373-2.23c1.41-1.419,2.23-3.376,2.23-5.373
	c0-2.007-0.821-3.964-2.23-5.384C208.8,173.656,206.843,172.845,204.845,172.845z"/>
<path d="M238.026,172.845c-2.006,0-3.964,0.811-5.384,2.22c-1.41,1.419-2.22,3.376-2.22,5.384c0,1.997,0.811,3.954,2.22,5.373
	c1.418,1.419,3.376,2.23,5.384,2.23c1.998,0,3.954-0.811,5.373-2.23c1.41-1.419,2.23-3.376,2.23-5.373
	c0-2.007-0.821-3.964-2.23-5.384C241.981,173.656,240.025,172.845,238.026,172.845z"/>
<path d="M271.208,172.845c-2.006,0-3.964,0.811-5.384,2.22c-1.41,1.419-2.22,3.376-2.22,5.384c0,1.997,0.811,3.954,2.22,5.373
	c1.418,1.419,3.376,2.23,5.384,2.23c1.998,0,3.954-0.811,5.373-2.23c1.41-1.419,2.23-3.376,2.23-5.373
	c0-2.007-0.821-3.964-2.23-5.384C275.162,173.656,273.206,172.845,271.208,172.845z"/>
<path d="M304.39,172.845c-2.006,0-3.964,0.811-5.384,2.22c-1.41,1.419-2.22,3.376-2.22,5.384c0,1.997,0.811,3.954,2.22,5.373
	c1.418,1.419,3.376,2.23,5.384,2.23c1.998,0,3.954-0.811,5.373-2.23c1.41-1.419,2.23-3.376,2.23-5.373
	c0-2.007-0.821-3.964-2.23-5.384C308.344,173.656,306.387,172.845,304.39,172.845z"/>
<path d="M355.548,37.789C329.37,13.42,294.017,0,256,0s-73.371,13.42-99.548,37.789c-26.769,24.919-41.511,59.224-41.511,96.595
	c0,9.365,0.921,19.065,2.736,28.827c0.767,4.128,4.735,6.857,8.866,6.085c4.128-0.767,6.853-4.737,6.085-8.865
	c-1.645-8.849-2.48-17.611-2.48-26.046C130.148,66.442,184.253,15.208,256,15.208s125.852,51.234,125.852,119.176
	c0,34.468-13.998,72.714-37.444,102.305c-24.967,31.512-56.365,48.866-88.408,48.866c-39.454,0-79.425-27.886-104.316-72.775
	c-2.036-3.673-6.665-5-10.337-2.964c-3.673,2.037-4.999,6.665-2.962,10.337c12.875,23.22,29.921,42.932,49.295,57.004
	c0.184,0.134,31.704,23.717,31.704,111.282v86.753c-5.202,3.67-8.616,9.714-8.616,16.55c0,11.17,9.086,20.256,20.256,20.256h49.952
	c11.169,0,20.256-9.086,20.256-20.256c0-6.836-3.414-12.88-8.616-16.55v-86.774c1.217-72.4,21.229-100.991,30.964-110.643
	c11.706-8.402,22.726-18.997,32.747-31.644c25.506-32.19,40.732-73.965,40.732-111.75C397.06,97.013,382.317,62.708,355.548,37.789z
	 M261.141,300.623c-1.987,6.149-3.765,12.763-5.318,19.822c-1.379-5.598-3.261-12.578-5.624-19.868
	c1.933,0.111,3.868,0.187,5.8,0.187C257.716,300.763,259.43,300.707,261.141,300.623z M277.408,471.489h-42.816v-68.174h25.444
	c4.199,0,7.604-3.404,7.604-7.604s-3.405-7.604-7.604-7.604h-25.444v-10.999c0-2.74,2.316-5.056,5.056-5.056h32.704
	c2.74,0,5.056,2.316,5.056,5.056L277.408,471.489L277.408,471.489z M280.977,496.792h-49.952c-2.736,0-5.048-2.312-5.048-5.048
	s2.312-5.048,5.048-5.048h49.952c2.736,0,5.048,2.312,5.048,5.048S283.712,496.792,280.977,496.792z M279.081,358.017
	c-2.109-0.746-4.368-1.173-6.729-1.173h-32.704c-2.361,0-4.62,0.427-6.729,1.173c-2.553-25.728-7.916-47.406-16.037-64.788
	c5.418,2.104,10.906,3.765,16.43,4.994c6.621,18.155,10.316,37.327,10.354,37.526c0.333,1.742,1.263,3.314,2.631,4.443
	c3.026,2.497,6.361,3.511,9.537,3.511c3.726,0,7.235-1.396,9.773-3.431c1.446-1.153,2.437-2.806,2.755-4.663
	c2.422-14.147,5.671-26.625,9.658-37.189c5.756-1.224,11.447-2.923,17.049-5.085C286.974,310.699,281.628,332.342,279.081,358.017z"
	/>
<path d="M142.227,192.986c-1.582-3.904-3.032-7.889-4.315-11.846c-1.295-3.996-5.584-6.186-9.578-4.89
	c-3.995,1.295-6.185,5.582-4.89,9.577c1.394,4.3,2.971,8.63,4.687,12.867c1.197,2.957,4.797,6.202,9.902,4.193
	C141.942,201.35,143.803,196.879,142.227,192.986z"/>
<path d="M256,272.882c28.091,0,55.96-15.649,78.474-44.063c21.731-27.426,34.703-62.729,34.703-94.435
	C369.178,73.667,320.522,27.881,256,27.881S142.822,73.667,142.822,134.384c0,31.705,12.973,67.009,34.703,94.435
	C200.04,257.234,227.909,272.882,256,272.882z M185.637,69.439c18.057-16.992,43.046-26.35,70.363-26.35s52.306,9.358,70.363,26.35
	c17.802,16.753,27.607,39.817,27.607,64.945c0,28.391-11.745,60.163-31.416,84.99c-19.569,24.698-43.205,38.3-66.554,38.3
	c-23.349,0-46.985-13.602-66.555-38.3c-19.672-24.827-31.416-56.599-31.416-84.99C158.03,109.257,167.835,86.192,185.637,69.439z"/>
<g>
</g>
<g>
</g>
<g>
</g>
<g>
</g>
<g>
</g>
<g>
</g>
<g>
</g>
<g>
</g>
<g>
</g>
<g>
</g>
<g>
</g>
<g>
</g>
<g>
</g>
<g>
</g>
<g>
</g>
</svg>
